<svg xmlns="http://www.w3.org/2000/svg" viewBox="0 0 1024 1024">
  <circle cx="512" cy="512" r="512" fill="#f4f4f4"/>
  <path d="M512 170c-188.7 0-342 153.3-342 342s153.3 342 342 342 342-153.3 342-342-153.3-342-342-342zm0 612c-149 0-270-121-270-270s121-270 270-270 270 121 270 270-121 270-270 270z" fill="#f4a261"/>
  <rect x="440" y="460" width="60" height="140" fill="#f4a261"/>
  <rect x="510" y="420" width="60" height="180" fill="#f4a261"/>
  <rect x="580" y="370" width="60" height="230" fill="#f4a261"/>
  <path d="M750 680c-20 35-50 65-85 85l-55-95c35-20 60-55 70-95h110c-5 40-20 75-40 105z" fill="#f4a261"/>
</svg>
